<?xml version="1.0" encoding="utf-8"?>
<!-- Generator: Adobe Illustrator 16.0.3, SVG Export Plug-In . SVG Version: 6.00 Build 0)  -->
<!DOCTYPE svg PUBLIC "-//W3C//DTD SVG 1.1//EN" "http://www.w3.org/Graphics/SVG/1.1/DTD/svg11.dtd">
<svg version="1.1" id="Ebene_1" xmlns="http://www.w3.org/2000/svg" xmlns:xlink="http://www.w3.org/1999/xlink" x="0px" y="0px"
	 width="566.93px" height="566.93px" viewBox="0 0 566.93 566.93" enable-background="new 0 0 566.93 566.93" xml:space="preserve">
<path fill="none" stroke="#555555" stroke-width="31" stroke-miterlimit="10" d="M283.229,422.809
	c0,10.595-8.565,19.186-19.131,19.186H62.94c-10.567,0-19.133-8.591-19.133-19.186V254.93c0-10.598,8.566-19.188,19.133-19.188
	h201.158c10.566,0,19.131,8.589,19.131,19.188V422.809z"/>
<path fill="none" stroke="#555555" stroke-width="31" stroke-miterlimit="10" d="M533.273,165.928v143.895
	c0,10.597,0,22.385-19.531,30.379L272.925,439.24"/>
<path fill="#E51313" d="M592.865,164.345"/>
<path fill="#555555" d="M548.277,112.1H295.16c-2.262,0-4.422,0.456-6.436,1.25l-0.204-0.051l-273.2,78.605
	c-0.785,0.168-1.551,0.392-2.298,0.661l-0.161,0.047l0.029,0.007c-7.578,2.808-13.042,10.684-13.042,19.979v27.24
	c0,11.647,8.566,21.088,19.132,21.088h253.118c2.353,0,4.597-0.49,6.679-1.347l0.317,0.08l275.659-79.313l-0.144-0.036
	c7.449-2.886,12.801-10.686,12.801-19.882v-27.237C567.41,121.542,558.842,112.1,548.277,112.1z"/>
</svg>
