<?xml version="1.0" encoding="utf-8"?>
<!-- Generator: Adobe Illustrator 16.0.3, SVG Export Plug-In . SVG Version: 6.00 Build 0)  -->
<!DOCTYPE svg PUBLIC "-//W3C//DTD SVG 1.1//EN" "http://www.w3.org/Graphics/SVG/1.1/DTD/svg11.dtd">
<svg version="1.1" id="Ebene_1" xmlns="http://www.w3.org/2000/svg" xmlns:xlink="http://www.w3.org/1999/xlink" x="0px" y="0px"
	 width="566.93px" height="566.93px" viewBox="0 0 566.93 566.93" enable-background="new 0 0 566.93 566.93" xml:space="preserve">
<path fill="none" stroke="#FFFFFF" stroke-width="42" stroke-miterlimit="10" d="M283.381,436.014
	c0,12.417-8.565,22.486-19.131,22.486H63.092c-10.567,0-19.133-10.069-19.133-22.486V239.25c0-12.422,8.566-22.489,19.133-22.489
	H264.25c10.566,0,19.131,10.067,19.131,22.489V436.014z"/>
<path fill="none" stroke="#FFFFFF" stroke-width="42" stroke-miterlimit="10" d="M533.426,134.934v168.653
	c0,12.42,0,26.236-19.531,35.605l-240.818,116.08"/>
<path fill="#E51313" d="M593.018,133.351"/>
<path fill="#FFFFFF" d="M548.43,89.106H295.313c-2.262,0-4.422,0.456-6.436,1.25l-0.205-0.051l-273.2,78.605
	c-0.785,0.168-1.551,0.392-2.298,0.661l-0.161,0.047l0.029,0.007C5.464,172.433,0,180.308,0,189.603v27.24
	c0,11.647,8.566,21.088,19.132,21.088H272.25c2.353,0,4.597-0.49,6.679-1.347l0.317,0.08l275.658-79.313l-0.143-0.036
	c7.449-2.886,12.801-10.686,12.801-19.882v-27.237C567.563,98.547,558.994,89.106,548.43,89.106z"/>
</svg>
